<svg width="170" height="46" viewBox="0 0 170 46" fill="none" xmlns="http://www.w3.org/2000/svg">
<rect x="45.7684" y="36.8" width="6.53843" height="4.6" fill="#0242FF"/>
<rect x="52.3093" y="36.8" width="6.53843" height="4.6" fill="#0242FF"/>
<rect x="58.8429" y="36.8" width="6.53843" height="4.6" fill="#0242FF"/>
<rect x="65.3876" y="36.8" width="6.53843" height="4.6" fill="#0242FF"/>
<rect x="71.9249" y="36.8" width="6.53843" height="4.6" fill="#0242FF"/>
<rect x="78.4622" y="36.8" width="6.53843" height="4.6" fill="#0242FF"/>
<rect x="85.0031" y="36.8" width="6.53843" height="4.6" fill="#0242FF"/>
<rect x="91.5367" y="36.8" width="6.53843" height="4.6" fill="#0242FF"/>
<rect x="98.074" y="36.8" width="6.53843" height="4.6" fill="#0242FF"/>
<rect x="104.619" y="36.8" width="6.53843" height="4.6" fill="#0242FF"/>
<rect x="111.152" y="36.8" width="6.53843" height="4.6" fill="#0242FF"/>
<rect x="117.69" y="36.8" width="6.53843" height="4.6" fill="#0242FF"/>
<rect x="124.231" y="36.8" width="6.53843" height="4.6" fill="#0242FF"/>
<rect x="130.771" y="36.8" width="6.53843" height="4.6" fill="#0242FF"/>
<rect x="143.846" y="36.8" width="6.53843" height="4.6" fill="#0242FF"/>
<rect x="137.309" y="36.8" width="6.53843" height="4.6" fill="#0242FF"/>
<rect x="150.38" y="36.8" width="6.53843" height="4.6" fill="#0242FF"/>
<rect x="156.924" y="32.2" width="6.53843" height="4.6" fill="#1953FF"/>
<rect x="163.462" y="27.6" width="6.53843" height="4.6" fill="#1953FF"/>
<rect x="163.462" y="23" width="6.53843" height="4.6" fill="#1953FF"/>
<rect x="163.462" y="18.4" width="6.53843" height="4.6" fill="#1953FF"/>
<rect x="163.462" y="13.8" width="6.53843" height="4.6" fill="#1953FF"/>
<rect x="163.462" y="9.19995" width="6.53843" height="4.6" fill="#1953FF"/>
<rect x="156.924" y="4.59998" width="6.53843" height="4.6" fill="#1953FF"/>
<rect x="6.53359" y="9.19995" width="6.53843" height="4.6" fill="#1953FF"/>
<path d="M6.53359 13.8H13.072V18.4H6.53359V13.8Z" fill="#1953FF"/>
<path d="M6.53359 18.4H13.072V23H6.53359V18.4Z" fill="#1953FF"/>
<path d="M6.53359 23H13.072V27.6H6.53359V23Z" fill="#1953FF"/>
<path d="M6.53359 27.6H13.072V32.2H6.53359V27.6Z" fill="#1953FF"/>
<rect x="13.0783" y="4.59998" width="6.53843" height="4.6" fill="#1953FF"/>
<path d="M19.6155 0H26.154V4.6H19.6155V0Z" fill="#1953FF"/>
<rect x="26.1528" width="6.53843" height="4.6" fill="#1953FF"/>
<rect x="26.1528" y="36.8" width="6.53843" height="4.6" fill="#0242FF"/>
<rect x="32.6938" y="36.8" width="6.53843" height="4.6" fill="#0242FF"/>
<rect x="19.6155" y="36.8" width="6.53843" height="4.6" fill="#0242FF"/>
<rect x="13.0783" y="32.2" width="6.53843" height="4.6" fill="#1953FF"/>
<rect x="39.2274" y="36.8" width="6.53843" height="4.6" fill="#0242FF"/>
<rect x="45.7684" width="6.53843" height="4.6" fill="#1953FF"/>
<rect x="52.3093" width="6.53843" height="4.6" fill="#1953FF"/>
<rect x="58.8429" width="6.53843" height="4.6" fill="#1953FF"/>
<rect x="65.3876" width="6.53843" height="4.6" fill="#1953FF"/>
<rect x="71.9249" width="6.53843" height="4.6" fill="#1953FF"/>
<rect x="78.4622" width="6.53843" height="4.6" fill="#1953FF"/>
<rect x="85.0031" width="6.53843" height="4.6" fill="#1953FF"/>
<rect x="91.5367" width="6.53843" height="4.6" fill="#1953FF"/>
<rect x="98.074" width="6.53843" height="4.6" fill="#1953FF"/>
<rect x="104.619" width="6.53843" height="4.6" fill="#1953FF"/>
<rect x="111.152" width="6.53843" height="4.6" fill="#1953FF"/>
<rect x="117.69" width="6.53843" height="4.6" fill="#1953FF"/>
<rect x="124.231" width="6.53843" height="4.6" fill="#1953FF"/>
<rect x="130.771" width="6.53843" height="4.6" fill="#1953FF"/>
<rect x="137.309" width="6.53843" height="4.6" fill="#1953FF"/>
<rect x="143.846" width="6.53843" height="4.6" fill="#1953FF"/>
<rect x="150.38" width="6.53843" height="4.6" fill="#1953FF"/>
<rect x="39.2274" width="6.53843" height="4.6" fill="#1953FF"/>
<rect x="32.6938" width="6.53843" height="4.6" fill="#1953FF"/>
<rect x="13.0783" y="27.6" width="6.53843" height="4.6" fill="#0242FF"/>
<rect x="13.0783" y="23" width="6.53843" height="4.6" fill="#0242FF"/>
<rect x="13.0783" y="18.4" width="6.53843" height="4.6" fill="#0242FF"/>
<rect x="13.0783" y="13.8" width="6.53843" height="4.6" fill="#0242FF"/>
<rect x="13.0783" y="9.19995" width="6.53843" height="4.6" fill="#0242FF"/>
<rect x="150.38" y="27.6" width="6.53843" height="4.6" fill="#0242FF"/>
<rect x="150.38" y="23" width="6.53843" height="4.6" fill="#0242FF"/>
<rect x="150.38" y="18.4" width="6.53843" height="4.6" fill="#0242FF"/>
<rect x="150.38" y="13.8" width="6.53843" height="4.6" fill="#0242FF"/>
<rect x="150.38" y="9.19995" width="6.53843" height="4.6" fill="#0242FF"/>
<rect x="156.924" y="27.6" width="6.53843" height="4.6" fill="#0242FF"/>
<rect x="156.924" y="23" width="6.53843" height="4.6" fill="#0242FF"/>
<rect x="156.924" y="18.4" width="6.53843" height="4.6" fill="#0242FF"/>
<rect x="156.924" y="13.8" width="6.53843" height="4.6" fill="#0242FF"/>
<rect x="156.924" y="9.19995" width="6.53843" height="4.6" fill="#0242FF"/>
<rect x="32.6938" y="4.59998" width="6.53843" height="4.6" fill="#0242FF"/>
<rect x="39.2274" y="4.59998" width="6.53843" height="4.6" fill="#0242FF"/>
<rect x="45.7684" y="4.59998" width="6.53843" height="4.6" fill="#0242FF"/>
<rect x="52.3093" y="4.59998" width="6.53843" height="4.6" fill="#0242FF"/>
<rect x="58.8429" y="4.59998" width="6.53843" height="4.6" fill="#0242FF"/>
<rect x="65.3876" y="4.59998" width="6.53843" height="4.6" fill="#0242FF"/>
<rect x="71.9249" y="4.59998" width="6.53843" height="4.6" fill="#0242FF"/>
<rect x="78.4622" y="4.59998" width="6.53843" height="4.6" fill="#0242FF"/>
<rect x="85.0031" y="4.59998" width="6.53843" height="4.6" fill="#0242FF"/>
<rect x="91.5367" y="4.59998" width="6.53843" height="4.6" fill="#FF00C7"/>
<rect x="91.5367" y="4.59998" width="6.53843" height="4.6" fill="#0242FF"/>
<rect x="98.074" y="4.59998" width="6.53843" height="4.6" fill="#0242FF"/>
<rect x="104.619" y="4.59998" width="6.53843" height="4.6" fill="#0242FF"/>
<rect x="111.152" y="4.59998" width="6.53843" height="4.6" fill="#0242FF"/>
<rect x="117.69" y="4.59998" width="6.53843" height="4.6" fill="#0242FF"/>
<rect x="124.231" y="4.59998" width="6.53843" height="4.6" fill="#0242FF"/>
<rect x="130.771" y="4.59998" width="6.53843" height="4.6" fill="#0242FF"/>
<rect x="137.309" y="4.59998" width="6.53843" height="4.6" fill="#0242FF"/>
<rect x="143.846" y="4.59998" width="6.53843" height="4.6" fill="#0242FF"/>
<rect x="150.38" y="4.59998" width="6.53843" height="4.6" fill="#0242FF"/>
<rect x="26.1528" y="4.59998" width="6.53843" height="4.6" fill="#0242FF"/>
<rect x="19.6155" y="4.59998" width="6.53843" height="4.6" fill="#0242FF"/>
<rect x="150.38" y="32.2" width="6.53843" height="4.6" fill="#0242FF"/>
<rect x="6.53359" y="4.90662" width="6.53843" height="4.6" fill="#5F8DFF"/>
<rect y="9.50665" width="6.53843" height="4.6" fill="#5F8DFF"/>
<rect y="14.1067" width="6.53843" height="4.6" fill="#5F8DFF"/>
<rect y="18.7067" width="6.53843" height="4.6" fill="#5F8DFF"/>
<rect y="23.3066" width="6.53843" height="4.6" fill="#5F8DFF"/>
<rect y="27.6" width="6.53843" height="4.6" fill="#5F8DFF"/>
<rect x="6.53359" y="32.2" width="6.53843" height="4.6" fill="#5F8DFF"/>
<rect x="13.0783" y="36.8" width="6.53843" height="4.6" fill="#5F8DFF"/>
<rect x="19.6155" y="41.4" width="6.53843" height="4.6" fill="#5F8DFF"/>
<rect x="13.0783" y="41.4" width="6.53843" height="4.6" fill="#5F8DFF"/>
<rect x="6.53359" y="36.8" width="6.53843" height="4.6" fill="#5F8DFF"/>
<rect y="32.2" width="6.53843" height="4.6" fill="#5F8DFF"/>
<rect x="26.1528" y="41.4" width="6.53843" height="4.6" fill="#5F8DFF"/>
<rect x="32.6938" y="41.4" width="6.53843" height="4.6" fill="#5F8DFF"/>
<rect x="39.2274" y="41.4" width="6.53843" height="4.6" fill="#5F8DFF"/>
<rect x="45.7684" y="41.4" width="6.53843" height="4.6" fill="#5F8DFF"/>
<rect x="52.3093" y="41.4" width="6.53843" height="4.6" fill="#5F8DFF"/>
<rect x="58.8429" y="41.4" width="6.53843" height="4.6" fill="#5F8DFF"/>
<rect x="65.3876" y="41.4" width="6.53843" height="4.6" fill="#5F8DFF"/>
<rect x="71.9249" y="41.4" width="6.53843" height="4.6" fill="#5F8DFF"/>
<rect x="78.4622" y="41.4" width="6.53843" height="4.6" fill="#5F8DFF"/>
<rect x="85.0031" y="41.4" width="6.53843" height="4.6" fill="#5F8DFF"/>
<rect x="91.5367" y="41.4" width="6.53843" height="4.6" fill="#5F8DFF"/>
<rect x="98.074" y="41.4" width="6.53843" height="4.6" fill="#5F8DFF"/>
<rect x="104.619" y="41.4" width="6.53843" height="4.6" fill="#5F8DFF"/>
<rect x="111.152" y="41.4" width="6.53843" height="4.6" fill="#5F8DFF"/>
<rect x="117.69" y="41.4" width="6.53843" height="4.6" fill="#5F8DFF"/>
<rect x="124.231" y="41.4" width="6.53843" height="4.6" fill="#5F8DFF"/>
<rect x="130.771" y="41.4" width="6.53843" height="4.6" fill="#5F8DFF"/>
<rect x="143.846" y="41.4" width="6.53843" height="4.6" fill="#5F8DFF"/>
<rect x="137.309" y="41.4" width="6.53843" height="4.6" fill="#5F8DFF"/>
<rect x="150.38" y="41.4" width="6.53843" height="4.6" fill="#5F8DFF"/>
<rect x="156.924" y="36.8" width="6.53843" height="4.6" fill="#5F8DFF"/>
<rect x="163.462" y="32.2" width="6.53843" height="4.6" fill="#5F8DFF"/>
<rect x="13.0783" y="0.306641" width="6.53843" height="4.6" fill="#5F8DFF"/>
<rect width="132.376" height="28" transform="translate(18.7338 9)" fill="#0242FF"/>
<path d="M52.4034 31.7109H51.5479V30H49.4034V29.1445H48.5479V28.2891H47.6924V26.5723H49.4034V27.4336H50.2588V28.2891H51.5479V24.8613H50.2588V24H48.5479V23.1445H47.6924V19.7168H48.5479V18.8613H49.4034V18H51.5479V16.2891H52.4034V18H54.5479V18.8613H55.4034V19.7168H56.2588V21.4336H54.5479V20.5723H53.6924V19.7168H52.4034V23.1445H53.6924V24H55.4034V24.8613H56.2588V28.2891H55.4034V29.1445H54.5479V30H52.4034V31.7109ZM50.2588 23.1445H51.5479V19.7168H50.2588V20.5723H49.4034V22.2891H50.2588V23.1445ZM52.4034 28.2891H53.6924V27.4336H54.5479V25.7168H53.6924V24.8613H52.4034V28.2891ZM59.6924 30H57.9815V27.4336H58.837V24.8613H59.6924V22.2891H60.5479V19.7168H61.4092V18H63.9815V19.7168H64.837V22.2891H65.6924V24.8613H66.5479V27.4336H67.4092V30H65.6924V27.4336H59.6924V30ZM60.5479 25.7168H64.837V24.8613H63.9815V22.2891H63.1202V20.5723H62.2647V22.2891H61.4092V24.8613H60.5479V25.7168ZM70.8252 30H69.1143V18H76.8252V18.8613H77.6807V19.7168H78.542V23.5723H77.6807V24.4336H76.8252V25.2891H77.6807V26.1445H78.542V30H76.8252V27H75.9698V26.1445H75.1143V25.2891H70.8252V30ZM70.8252 23.5723H75.9698V22.7168H76.8252V20.5723H75.9698V19.7168H70.8252V23.5723ZM87.958 30H82.8135V29.1445H81.958V28.2891H81.1026V27.4336H80.2471V20.5723H81.1026V19.7168H81.958V18.8613H82.8135V18H87.958V18.8613H88.8135V19.7168H89.6748V20.5723H90.5303V22.2891H88.8135V21.4336H87.958V20.5723H87.1026V19.7168H83.6748V20.5723H82.8135V21.4336H81.958V26.5723H82.8135V27.4336H83.6748V28.2891H87.1026V27.4336H87.958V26.5723H88.8135V25.7168H90.5303V27.4336H89.6748V28.2891H88.8135V29.1445H87.958V30ZM93.5362 30H91.8252V27.4336H92.6807V24.8613H93.5362V22.2891H94.3916V19.7168H95.253V18H97.8252V19.7168H98.6807V22.2891H99.5362V24.8613H100.392V27.4336H101.253V30H99.5362V27.4336H93.5362V30ZM94.3916 25.7168H98.6807V24.8613H97.8252V22.2891H96.9639V20.5723H96.1084V22.2891H95.253V24.8613H94.3916V25.7168ZM109.814 30H102.958V18H109.814V18.8613H110.669V19.7168H111.524V20.5723H112.386V27.4336H111.524V28.2891H110.669V29.1445H109.814V30ZM104.669 28.2891H108.958V27.4336H109.814V26.5723H110.669V21.4336H109.814V20.5723H108.958V19.7168H104.669V28.2891ZM122.657 30H114.091V18H122.657V19.7168H115.802V22.7168H121.802V24.4336H115.802V28.2891H122.657V30Z" fill="white"/>
</svg>
