<svg width="170" height="46" viewBox="0 0 170 46" fill="none" xmlns="http://www.w3.org/2000/svg">
<rect x="45.7684" y="36.8" width="6.53843" height="4.6" fill="#0242FF"/>
<rect x="52.3093" y="36.8" width="6.53843" height="4.6" fill="#0242FF"/>
<rect x="58.8429" y="36.8" width="6.53843" height="4.6" fill="#0242FF"/>
<rect x="65.3876" y="36.8" width="6.53843" height="4.6" fill="#0242FF"/>
<rect x="71.9249" y="36.8" width="6.53843" height="4.6" fill="#0242FF"/>
<rect x="78.4622" y="36.8" width="6.53843" height="4.6" fill="#0242FF"/>
<rect x="85.0031" y="36.8" width="6.53843" height="4.6" fill="#0242FF"/>
<rect x="91.5367" y="36.8" width="6.53843" height="4.6" fill="#0242FF"/>
<rect x="98.074" y="36.8" width="6.53843" height="4.6" fill="#0242FF"/>
<rect x="104.619" y="36.8" width="6.53843" height="4.6" fill="#0242FF"/>
<rect x="111.152" y="36.8" width="6.53843" height="4.6" fill="#0242FF"/>
<rect x="117.69" y="36.8" width="6.53843" height="4.6" fill="#0242FF"/>
<rect x="124.231" y="36.8" width="6.53843" height="4.6" fill="#0242FF"/>
<rect x="130.771" y="36.8" width="6.53843" height="4.6" fill="#0242FF"/>
<rect x="143.846" y="36.8" width="6.53843" height="4.6" fill="#0242FF"/>
<rect x="137.309" y="36.8" width="6.53843" height="4.6" fill="#0242FF"/>
<rect x="150.38" y="36.8" width="6.53843" height="4.6" fill="#0242FF"/>
<rect x="156.924" y="32.2" width="6.53843" height="4.6" fill="#1953FF"/>
<rect x="163.462" y="27.6" width="6.53843" height="4.6" fill="#1953FF"/>
<rect x="163.462" y="23" width="6.53843" height="4.6" fill="#1953FF"/>
<rect x="163.462" y="18.4" width="6.53843" height="4.6" fill="#1953FF"/>
<rect x="163.462" y="13.8" width="6.53843" height="4.6" fill="#1953FF"/>
<rect x="163.462" y="9.19995" width="6.53843" height="4.6" fill="#1953FF"/>
<rect x="156.924" y="4.59998" width="6.53843" height="4.6" fill="#1953FF"/>
<rect x="6.53359" y="9.19995" width="6.53843" height="4.6" fill="#1953FF"/>
<path d="M6.53359 13.8H13.072V18.4H6.53359V13.8Z" fill="#1953FF"/>
<path d="M6.53359 18.4H13.072V23H6.53359V18.4Z" fill="#1953FF"/>
<path d="M6.53359 23H13.072V27.6H6.53359V23Z" fill="#1953FF"/>
<path d="M6.53359 27.6H13.072V32.2H6.53359V27.6Z" fill="#1953FF"/>
<rect x="13.0783" y="4.59998" width="6.53843" height="4.6" fill="#1953FF"/>
<path d="M19.6155 0H26.154V4.6H19.6155V0Z" fill="#1953FF"/>
<rect x="26.1528" width="6.53843" height="4.6" fill="#1953FF"/>
<rect x="26.1528" y="36.8" width="6.53843" height="4.6" fill="#0242FF"/>
<rect x="32.6938" y="36.8" width="6.53843" height="4.6" fill="#0242FF"/>
<rect x="19.6155" y="36.8" width="6.53843" height="4.6" fill="#0242FF"/>
<rect x="13.0783" y="32.2" width="6.53843" height="4.6" fill="#1953FF"/>
<rect x="39.2274" y="36.8" width="6.53843" height="4.6" fill="#0242FF"/>
<rect x="45.7684" width="6.53843" height="4.6" fill="#1953FF"/>
<rect x="52.3093" width="6.53843" height="4.6" fill="#1953FF"/>
<rect x="58.8429" width="6.53843" height="4.6" fill="#1953FF"/>
<rect x="65.3876" width="6.53843" height="4.6" fill="#1953FF"/>
<rect x="71.9249" width="6.53843" height="4.6" fill="#1953FF"/>
<rect x="78.4622" width="6.53843" height="4.6" fill="#1953FF"/>
<rect x="85.0031" width="6.53843" height="4.6" fill="#1953FF"/>
<rect x="91.5367" width="6.53843" height="4.6" fill="#1953FF"/>
<rect x="98.074" width="6.53843" height="4.6" fill="#1953FF"/>
<rect x="104.619" width="6.53843" height="4.6" fill="#1953FF"/>
<rect x="111.152" width="6.53843" height="4.6" fill="#1953FF"/>
<rect x="117.69" width="6.53843" height="4.6" fill="#1953FF"/>
<rect x="124.231" width="6.53843" height="4.6" fill="#1953FF"/>
<rect x="130.771" width="6.53843" height="4.6" fill="#1953FF"/>
<rect x="137.309" width="6.53843" height="4.6" fill="#1953FF"/>
<rect x="143.846" width="6.53843" height="4.6" fill="#1953FF"/>
<rect x="150.38" width="6.53843" height="4.6" fill="#1953FF"/>
<rect x="39.2274" width="6.53843" height="4.6" fill="#1953FF"/>
<rect x="32.6938" width="6.53843" height="4.6" fill="#1953FF"/>
<rect x="13.0783" y="27.6" width="6.53843" height="4.6" fill="#0242FF"/>
<rect x="13.0783" y="23" width="6.53843" height="4.6" fill="#0242FF"/>
<rect x="13.0783" y="18.4" width="6.53843" height="4.6" fill="#0242FF"/>
<rect x="13.0783" y="13.8" width="6.53843" height="4.6" fill="#0242FF"/>
<rect x="13.0783" y="9.19995" width="6.53843" height="4.6" fill="#0242FF"/>
<rect x="150.38" y="27.6" width="6.53843" height="4.6" fill="#0242FF"/>
<rect x="150.38" y="23" width="6.53843" height="4.6" fill="#0242FF"/>
<rect x="150.38" y="18.4" width="6.53843" height="4.6" fill="#0242FF"/>
<rect x="150.38" y="13.8" width="6.53843" height="4.6" fill="#0242FF"/>
<rect x="150.38" y="9.19995" width="6.53843" height="4.6" fill="#0242FF"/>
<rect x="156.924" y="27.6" width="6.53843" height="4.6" fill="#0242FF"/>
<rect x="156.924" y="23" width="6.53843" height="4.6" fill="#0242FF"/>
<rect x="156.924" y="18.4" width="6.53843" height="4.6" fill="#0242FF"/>
<rect x="156.924" y="13.8" width="6.53843" height="4.6" fill="#0242FF"/>
<rect x="156.924" y="9.19995" width="6.53843" height="4.6" fill="#0242FF"/>
<rect x="32.6938" y="4.59998" width="6.53843" height="4.6" fill="#0242FF"/>
<rect x="39.2274" y="4.59998" width="6.53843" height="4.6" fill="#0242FF"/>
<rect x="45.7684" y="4.59998" width="6.53843" height="4.6" fill="#0242FF"/>
<rect x="52.3093" y="4.59998" width="6.53843" height="4.6" fill="#0242FF"/>
<rect x="58.8429" y="4.59998" width="6.53843" height="4.6" fill="#0242FF"/>
<rect x="65.3876" y="4.59998" width="6.53843" height="4.6" fill="#0242FF"/>
<rect x="71.9249" y="4.59998" width="6.53843" height="4.6" fill="#0242FF"/>
<rect x="78.4622" y="4.59998" width="6.53843" height="4.6" fill="#0242FF"/>
<rect x="85.0031" y="4.59998" width="6.53843" height="4.6" fill="#0242FF"/>
<rect x="91.5367" y="4.59998" width="6.53843" height="4.6" fill="#FF00C7"/>
<rect x="91.5367" y="4.59998" width="6.53843" height="4.6" fill="#0242FF"/>
<rect x="98.074" y="4.59998" width="6.53843" height="4.6" fill="#0242FF"/>
<rect x="104.619" y="4.59998" width="6.53843" height="4.6" fill="#0242FF"/>
<rect x="111.152" y="4.59998" width="6.53843" height="4.6" fill="#0242FF"/>
<rect x="117.69" y="4.59998" width="6.53843" height="4.6" fill="#0242FF"/>
<rect x="124.231" y="4.59998" width="6.53843" height="4.6" fill="#0242FF"/>
<rect x="130.771" y="4.59998" width="6.53843" height="4.6" fill="#0242FF"/>
<rect x="137.309" y="4.59998" width="6.53843" height="4.6" fill="#0242FF"/>
<rect x="143.846" y="4.59998" width="6.53843" height="4.6" fill="#0242FF"/>
<rect x="150.38" y="4.59998" width="6.53843" height="4.6" fill="#0242FF"/>
<rect x="26.1528" y="4.59998" width="6.53843" height="4.6" fill="#0242FF"/>
<rect x="19.6155" y="4.59998" width="6.53843" height="4.6" fill="#0242FF"/>
<rect x="150.38" y="32.2" width="6.53843" height="4.6" fill="#0242FF"/>
<rect x="6.53359" y="4.90662" width="6.53843" height="4.6" fill="#5F8DFF"/>
<rect y="9.50665" width="6.53843" height="4.6" fill="#5F8DFF"/>
<rect y="14.1067" width="6.53843" height="4.6" fill="#5F8DFF"/>
<rect y="18.7067" width="6.53843" height="4.6" fill="#5F8DFF"/>
<rect y="23.3066" width="6.53843" height="4.6" fill="#5F8DFF"/>
<rect y="27.6" width="6.53843" height="4.6" fill="#5F8DFF"/>
<rect x="6.53359" y="32.2" width="6.53843" height="4.6" fill="#5F8DFF"/>
<rect x="13.0783" y="36.8" width="6.53843" height="4.6" fill="#5F8DFF"/>
<rect x="19.6155" y="41.4" width="6.53843" height="4.6" fill="#5F8DFF"/>
<rect x="13.0783" y="41.4" width="6.53843" height="4.6" fill="#5F8DFF"/>
<rect x="6.53359" y="36.8" width="6.53843" height="4.6" fill="#5F8DFF"/>
<rect y="32.2" width="6.53843" height="4.6" fill="#5F8DFF"/>
<rect x="26.1528" y="41.4" width="6.53843" height="4.6" fill="#5F8DFF"/>
<rect x="32.6938" y="41.4" width="6.53843" height="4.6" fill="#5F8DFF"/>
<rect x="39.2274" y="41.4" width="6.53843" height="4.6" fill="#5F8DFF"/>
<rect x="45.7684" y="41.4" width="6.53843" height="4.6" fill="#5F8DFF"/>
<rect x="52.3093" y="41.4" width="6.53843" height="4.6" fill="#5F8DFF"/>
<rect x="58.8429" y="41.4" width="6.53843" height="4.6" fill="#5F8DFF"/>
<rect x="65.3876" y="41.4" width="6.53843" height="4.6" fill="#5F8DFF"/>
<rect x="71.9249" y="41.4" width="6.53843" height="4.6" fill="#5F8DFF"/>
<rect x="78.4622" y="41.4" width="6.53843" height="4.6" fill="#5F8DFF"/>
<rect x="85.0031" y="41.4" width="6.53843" height="4.6" fill="#5F8DFF"/>
<rect x="91.5367" y="41.4" width="6.53843" height="4.6" fill="#5F8DFF"/>
<rect x="98.074" y="41.4" width="6.53843" height="4.6" fill="#5F8DFF"/>
<rect x="104.619" y="41.4" width="6.53843" height="4.6" fill="#5F8DFF"/>
<rect x="111.152" y="41.4" width="6.53843" height="4.6" fill="#5F8DFF"/>
<rect x="117.69" y="41.4" width="6.53843" height="4.6" fill="#5F8DFF"/>
<rect x="124.231" y="41.4" width="6.53843" height="4.6" fill="#5F8DFF"/>
<rect x="130.771" y="41.4" width="6.53843" height="4.6" fill="#5F8DFF"/>
<rect x="143.846" y="41.4" width="6.53843" height="4.6" fill="#5F8DFF"/>
<rect x="137.309" y="41.4" width="6.53843" height="4.6" fill="#5F8DFF"/>
<rect x="150.38" y="41.4" width="6.53843" height="4.6" fill="#5F8DFF"/>
<rect x="156.924" y="36.8" width="6.53843" height="4.6" fill="#5F8DFF"/>
<rect x="163.462" y="32.2" width="6.53843" height="4.6" fill="#5F8DFF"/>
<rect x="13.0783" y="0.306641" width="6.53843" height="4.6" fill="#5F8DFF"/>
<rect width="132.376" height="28" transform="translate(18.7338 9)" fill="#0242FF"/>
<path d="M68.6807 30H66.9698V18H73.8252V18.8613H74.6807V19.7168H75.5362V24H74.6807V24.8613H73.8252V25.7168H68.6807V30ZM68.6807 24H72.9698V23.1445H73.8252V20.5723H72.9698V19.7168H68.6807V24ZM84.9698 30H77.2588V18H78.9698V28.2891H84.9698V30ZM87.9698 30H86.2588V27.4336H87.1143V24.8613H87.9698V22.2891H88.8252V19.7168H89.6866V18H92.2588V19.7168H93.1143V22.2891H93.9698V24.8613H94.8252V27.4336H95.6866V30H93.9698V27.4336H87.9698V30ZM88.8252 25.7168H93.1143V24.8613H92.2588V22.2891H91.3975V20.5723H90.542V22.2891H89.6866V24.8613H88.8252V25.7168ZM100.392 30H98.6807V24.8613H97.8194V23.1445H96.9639V21.4336H96.1084V19.7168H95.253V18H96.9639V19.7168H97.8194V21.4336H98.6807V23.1445H100.392V21.4336H101.253V19.7168H102.108V18H103.819V19.7168H102.964V21.4336H102.108V23.1445H101.253V24.8613H100.392V30Z" fill="white"/>
</svg>
